<svg width="671" height="553" viewBox="0 0 671 553" fill="none" xmlns="http://www.w3.org/2000/svg">
<g filter="url(#filter0_d_1682_53139)">
<g clip-path="url(#clip0_1682_53139)">
<g filter="url(#filter1_d_1682_53139)">
<g clip-path="url(#clip1_1682_53139)">
<rect x="73.9998" y="60.7007" width="523.33" height="414.948" rx="14.1027" fill="url(#paint0_radial_1682_53139)"/>
<rect x="366.411" y="111.269" width="208.923" height="29" rx="14.5" fill="#E6EDFF"/>
<path d="M380.559 131.502V126.602H389.139V123.886H380.559V119.266H390.23V116.499H377.259V134.269H390.586V131.502H380.559ZM405.393 134.269L400.088 127.338L405.165 120.713H401.738L398.413 125.155L395.087 120.713H391.559L396.61 127.389L391.33 134.269H394.833L398.336 129.572L401.814 134.269H405.393ZM414.72 120.561C412.867 120.561 411.293 121.195 410.227 122.49V120.713H407.206V139.193H410.379V132.619C411.471 133.862 412.994 134.446 414.72 134.446C418.68 134.446 421.599 131.705 421.599 127.491C421.599 123.302 418.68 120.561 414.72 120.561ZM414.365 131.73C412.08 131.73 410.328 130.08 410.328 127.491C410.328 124.902 412.08 123.251 414.365 123.251C416.649 123.251 418.376 124.902 418.376 127.491C418.376 130.08 416.649 131.73 414.365 131.73ZM424.08 134.269H427.253V115.433H424.08V134.269ZM436.981 134.446C441.195 134.446 444.216 131.552 444.216 127.491C444.216 123.429 441.195 120.561 436.981 120.561C432.818 120.561 429.772 123.429 429.772 127.491C429.772 131.552 432.818 134.446 436.981 134.446ZM436.981 131.73C434.697 131.73 432.97 130.08 432.97 127.491C432.97 124.902 434.697 123.251 436.981 123.251C439.291 123.251 441.017 124.902 441.017 127.491C441.017 130.08 439.291 131.73 436.981 131.73ZM449.742 122.693V120.713H446.721V134.269H449.894V127.694C449.894 124.927 451.418 123.505 453.829 123.505C454.058 123.505 454.286 123.531 454.565 123.582V120.561C452.306 120.561 450.656 121.271 449.742 122.693ZM469.348 127.567C469.348 123.328 466.454 120.561 462.494 120.561C458.457 120.561 455.487 123.455 455.487 127.491C455.487 131.527 458.432 134.446 462.976 134.446C465.311 134.446 467.215 133.685 468.434 132.238L466.733 130.283C465.768 131.273 464.575 131.755 463.052 131.755C460.691 131.755 459.041 130.486 458.66 128.506H469.297C469.322 128.202 469.348 127.821 469.348 127.567ZM462.494 123.099C464.575 123.099 466.073 124.445 466.327 126.399H458.635C458.94 124.419 460.437 123.099 462.494 123.099ZM498.103 134.269L498.077 116.499H495.361L488.431 128.278L481.374 116.499H478.658V134.269H481.806V122.642L487.644 132.238H489.117L494.955 122.49L494.98 134.269H498.103ZM507.248 120.561C505.064 120.561 502.958 121.119 501.511 122.236L502.754 124.546C503.77 123.708 505.344 123.201 506.867 123.201C509.126 123.201 510.243 124.292 510.243 126.145V126.348H506.74C502.628 126.348 501.104 128.125 501.104 130.385C501.104 132.745 503.059 134.446 506.156 134.446C508.187 134.446 509.659 133.786 510.421 132.619V134.269H513.416V126.323C513.416 122.414 511.157 120.561 507.248 120.561ZM506.816 132.136C505.191 132.136 504.227 131.4 504.227 130.258C504.227 129.268 504.811 128.455 506.968 128.455H510.243V130.029C509.71 131.425 508.365 132.136 506.816 132.136ZM519.98 122.693V120.713H516.96V134.269H520.133V127.694C520.133 124.927 521.656 123.505 524.067 123.505C524.296 123.505 524.524 123.531 524.804 123.582V120.561C522.544 120.561 520.894 121.271 519.98 122.693ZM537.197 134.269H541.055L534.861 126.399L540.522 120.713H536.714L530.14 126.805V115.433H526.966V134.269H530.14V130.689L532.5 128.455L537.197 134.269ZM554.749 127.567C554.749 123.328 551.855 120.561 547.895 120.561C543.859 120.561 540.889 123.455 540.889 127.491C540.889 131.527 543.833 134.446 548.377 134.446C550.713 134.446 552.617 133.685 553.835 132.238L552.134 130.283C551.17 131.273 549.977 131.755 548.453 131.755C546.093 131.755 544.443 130.486 544.062 128.506H554.698C554.724 128.202 554.749 127.821 554.749 127.567ZM547.895 123.099C549.977 123.099 551.474 124.445 551.728 126.399H544.037C544.341 124.419 545.839 123.099 547.895 123.099ZM564.528 131.273C564.046 131.654 563.411 131.832 562.751 131.832C561.533 131.832 560.873 131.121 560.873 129.801V123.353H564.503V120.815H560.873V117.718H557.7V120.815H555.466V123.353H557.7V129.877C557.7 132.872 559.4 134.446 562.37 134.446C563.513 134.446 564.655 134.142 565.417 133.532L564.528 131.273Z" fill="#E6EDFF"/>
<rect x="481.762" y="145.91" width="93.5724" height="13" rx="6.5" fill="#E6EDFF"/>
<path d="M488.092 154.672V152.479H491.932V151.264H488.092V149.197H492.42V147.959H486.616V155.91H492.579V154.672H488.092ZM499.205 155.91L496.831 152.809L499.103 149.844H497.569L496.081 151.832L494.593 149.844H493.014L495.275 152.831L492.912 155.91H494.48L496.047 153.808L497.603 155.91H499.205ZM503.378 149.776C502.549 149.776 501.845 150.06 501.368 150.639V149.844H500.016V158.113H501.436V155.171C501.924 155.728 502.606 155.989 503.378 155.989C505.15 155.989 506.456 154.762 506.456 152.877C506.456 151.003 505.15 149.776 503.378 149.776ZM503.219 154.774C502.197 154.774 501.413 154.035 501.413 152.877C501.413 151.718 502.197 150.98 503.219 150.98C504.241 150.98 505.014 151.718 505.014 152.877C505.014 154.035 504.241 154.774 503.219 154.774ZM507.566 155.91H508.986V147.482H507.566V155.91ZM513.339 155.989C515.225 155.989 516.576 154.694 516.576 152.877C516.576 151.06 515.225 149.776 513.339 149.776C511.476 149.776 510.113 151.06 510.113 152.877C510.113 154.694 511.476 155.989 513.339 155.989ZM513.339 154.774C512.317 154.774 511.544 154.035 511.544 152.877C511.544 151.718 512.317 150.98 513.339 150.98C514.373 150.98 515.145 151.718 515.145 152.877C515.145 154.035 514.373 154.774 513.339 154.774ZM519.049 150.73V149.844H517.697V155.91H519.117V152.968C519.117 151.73 519.799 151.094 520.878 151.094C520.98 151.094 521.082 151.105 521.207 151.128V149.776C520.196 149.776 519.458 150.094 519.049 150.73ZM527.822 152.911C527.822 151.014 526.527 149.776 524.755 149.776C522.949 149.776 521.62 151.071 521.62 152.877C521.62 154.683 522.937 155.989 524.971 155.989C526.016 155.989 526.868 155.648 527.413 155.001L526.652 154.126C526.22 154.569 525.686 154.785 525.005 154.785C523.948 154.785 523.21 154.217 523.04 153.331H527.799C527.81 153.195 527.822 153.025 527.822 152.911ZM524.755 150.912C525.686 150.912 526.356 151.514 526.47 152.388H523.028C523.165 151.503 523.835 150.912 524.755 150.912ZM540.688 155.91L540.677 147.959H539.462L536.361 153.229L533.203 147.959H531.988V155.91H533.396V150.707L536.009 155.001H536.667L539.28 150.639L539.291 155.91H540.688ZM544.78 149.776C543.803 149.776 542.861 150.026 542.213 150.526L542.77 151.559C543.224 151.184 543.928 150.957 544.61 150.957C545.621 150.957 546.121 151.446 546.121 152.275V152.366H544.553C542.713 152.366 542.032 153.161 542.032 154.172C542.032 155.228 542.906 155.989 544.292 155.989C545.201 155.989 545.859 155.694 546.2 155.171V155.91H547.54V152.354C547.54 150.605 546.53 149.776 544.78 149.776ZM544.587 154.956C543.86 154.956 543.429 154.626 543.429 154.115C543.429 153.672 543.69 153.309 544.655 153.309H546.121V154.013C545.882 154.637 545.28 154.956 544.587 154.956ZM550.478 150.73V149.844H549.126V155.91H550.546V152.968C550.546 151.73 551.227 151.094 552.306 151.094C552.409 151.094 552.511 151.105 552.636 151.128V149.776C551.625 149.776 550.887 150.094 550.478 150.73ZM558.181 155.91H559.908L557.136 152.388L559.669 149.844H557.965L555.024 152.57V147.482H553.604V155.91H555.024V154.308L556.08 153.309L558.181 155.91ZM566.035 152.911C566.035 151.014 564.74 149.776 562.968 149.776C561.162 149.776 559.833 151.071 559.833 152.877C559.833 154.683 561.151 155.989 563.184 155.989C564.229 155.989 565.081 155.648 565.626 155.001L564.865 154.126C564.434 154.569 563.9 154.785 563.218 154.785C562.162 154.785 561.424 154.217 561.253 153.331H566.012C566.024 153.195 566.035 153.025 566.035 152.911ZM562.968 150.912C563.9 150.912 564.57 151.514 564.683 152.388H561.242C561.378 151.503 562.048 150.912 562.968 150.912ZM570.411 154.569C570.195 154.74 569.911 154.819 569.616 154.819C569.071 154.819 568.775 154.501 568.775 153.911V151.025H570.4V149.89H568.775V148.504H567.355V149.89H566.356V151.025H567.355V153.945C567.355 155.285 568.116 155.989 569.445 155.989C569.957 155.989 570.468 155.853 570.808 155.58L570.411 154.569Z" fill="#E6EDFF"/>
<path d="M102.927 189.112C102.927 182.881 107.978 177.83 114.209 177.83H251.005C257.236 177.83 262.288 182.881 262.288 189.112V194.753C262.288 200.984 257.236 206.036 251.005 206.036H114.209C107.978 206.036 102.927 200.984 102.927 194.753V189.112Z" fill="white"/>
<path fill-rule="evenodd" clip-rule="evenodd" d="M247.48 186.909C245.095 186.909 243.161 188.842 243.161 191.228C243.161 193.613 245.095 195.547 247.48 195.547C249.865 195.547 251.799 193.613 251.799 191.228C251.799 188.842 249.865 186.909 247.48 186.909ZM241.927 191.228C241.927 188.161 244.413 185.675 247.48 185.675C250.547 185.675 253.033 188.161 253.033 191.228C253.033 194.295 250.547 196.781 247.48 196.781C244.413 196.781 241.927 194.295 241.927 191.228Z" fill="#9ECCEA"/>
<path fill-rule="evenodd" clip-rule="evenodd" d="M250.569 194.317C250.81 194.076 251.201 194.076 251.442 194.317L254.262 197.138C254.503 197.379 254.503 197.769 254.262 198.01C254.022 198.251 253.631 198.251 253.39 198.01L250.569 195.19C250.328 194.949 250.328 194.558 250.569 194.317Z" fill="#9ECCEA"/>
<path d="M114.209 179.24H251.005V176.42H114.209V179.24ZM260.877 189.112V194.753H263.698V189.112H260.877ZM251.005 204.625H114.209V207.446H251.005V204.625ZM104.337 194.753V189.112H101.516V194.753H104.337ZM114.209 204.625C108.757 204.625 104.337 200.205 104.337 194.753H101.516C101.516 201.763 107.199 207.446 114.209 207.446V204.625ZM260.877 194.753C260.877 200.205 256.458 204.625 251.005 204.625V207.446C258.015 207.446 263.698 201.763 263.698 194.753H260.877ZM251.005 179.24C256.458 179.24 260.877 183.66 260.877 189.112H263.698C263.698 182.102 258.015 176.42 251.005 176.42V179.24ZM114.209 176.42C107.199 176.42 101.516 182.102 101.516 189.112H104.337C104.337 183.66 108.757 179.24 114.209 179.24V176.42Z" fill="#9ECCEA"/>
<rect x="378.756" y="179.018" width="64.7952" height="25.8301" rx="10.5771" fill="#F2F6FF"/>
<rect x="378.756" y="179.018" width="64.7952" height="25.8301" rx="10.5771" stroke="#9ECCEA" stroke-width="1.41027"/>
<rect x="450.603" y="179.018" width="64.7952" height="25.8301" rx="10.5771" fill="#F2F6FF"/>
<rect x="450.603" y="179.018" width="64.7952" height="25.8301" rx="10.5771" stroke="#9ECCEA" stroke-width="1.41027"/>
<rect x="522.449" y="178.535" width="52.1801" height="26.7952" rx="10.5771" fill="#F2F6FF"/>
<path d="M521.744 189.112C521.744 182.881 526.795 177.83 533.026 177.83H538.667C544.898 177.83 549.949 182.881 549.949 189.112V194.753C549.949 200.984 544.898 206.036 538.667 206.036H533.026C526.795 206.036 521.744 200.984 521.744 194.753V189.112Z" fill="#9ECCEA"/>
<path fill-rule="evenodd" clip-rule="evenodd" d="M559.116 187.702C559.116 187.312 559.432 186.997 559.821 186.997H568.988C569.378 186.997 569.693 187.312 569.693 187.702C569.693 188.091 569.378 188.407 568.988 188.407H559.821C559.432 188.407 559.116 188.091 559.116 187.702Z" fill="#F2F6FF"/>
<path fill-rule="evenodd" clip-rule="evenodd" d="M559.116 191.933C559.116 191.543 559.432 191.227 559.821 191.227H568.988C569.378 191.227 569.693 191.543 569.693 191.933C569.693 192.322 569.378 192.638 568.988 192.638H559.821C559.432 192.638 559.116 192.322 559.116 191.933Z" fill="#F2F6FF"/>
<path fill-rule="evenodd" clip-rule="evenodd" d="M559.116 196.163C559.116 195.774 559.432 195.458 559.821 195.458H568.988C569.378 195.458 569.693 195.774 569.693 196.163C569.693 196.553 569.378 196.868 568.988 196.868H559.821C559.432 196.868 559.116 196.553 559.116 196.163Z" fill="#F2F6FF"/>
<path fill-rule="evenodd" clip-rule="evenodd" d="M555.591 187.702C555.591 187.312 555.906 186.997 556.296 186.997H556.303C556.692 186.997 557.008 187.312 557.008 187.702C557.008 188.091 556.692 188.407 556.303 188.407H556.296C555.906 188.407 555.591 188.091 555.591 187.702Z" fill="#F2F6FF"/>
<path fill-rule="evenodd" clip-rule="evenodd" d="M555.591 191.933C555.591 191.543 555.906 191.227 556.296 191.227H556.303C556.692 191.227 557.008 191.543 557.008 191.933C557.008 192.322 556.692 192.638 556.303 192.638H556.296C555.906 192.638 555.591 192.322 555.591 191.933Z" fill="#F2F6FF"/>
<path fill-rule="evenodd" clip-rule="evenodd" d="M555.591 196.163C555.591 195.774 555.906 195.458 556.296 195.458H556.303C556.692 195.458 557.008 195.774 557.008 196.163C557.008 196.553 556.692 196.868 556.303 196.868H556.296C555.906 196.868 555.591 196.553 555.591 196.163Z" fill="#F2F6FF"/>
<rect x="522.449" y="178.535" width="52.1801" height="26.7952" rx="10.5771" stroke="#9ECCEA" stroke-width="1.41027"/>
<path d="M102.927 237.062C102.927 230.831 107.978 225.779 114.21 225.779H239.722C245.954 225.779 251.005 230.831 251.005 237.062V440.845C251.005 447.077 245.954 452.128 239.722 452.128H114.21C107.978 452.128 102.927 447.077 102.927 440.845V237.062Z" fill="white"/>
<g clip-path="url(#clip2_1682_53139)">
<g clip-path="url(#clip3_1682_53139)">
<path d="M232.671 235.306H121.739V360.552H232.671V235.306Z" fill="white"/>
<path d="M178.355 351.494C203.206 351.494 223.352 331.348 223.352 306.496C223.352 281.645 203.206 261.499 178.355 261.499C153.504 261.499 133.358 281.645 133.358 306.496C133.358 331.348 153.504 351.494 178.355 351.494Z" fill="#E3EDFF"/>
<path d="M193.245 298.268L181.259 283.302L183.395 279.483L191.871 277.269L200.194 278.568L201.418 284.523L201.799 290.86L193.245 298.268Z" fill="white"/>
<path d="M161.7 264.025V251.359C161.7 251.359 161.609 240.151 178.831 239.057C196.053 237.963 197.785 239.148 199.061 239.604C200.338 240.06 205.896 241.519 206.261 248.809C206.625 256.1 206.352 260.017 206.352 260.017C206.352 260.017 189.95 263.752 161.7 264.025Z" fill="white" stroke="#91CEED" stroke-width="0.976859" stroke-linecap="round" stroke-linejoin="round"/>
<path d="M164.858 266.601C164.858 266.601 164.119 260.926 159.245 258.581C154.37 256.237 145.92 261.173 146.291 270.115C146.663 279.056 150.726 285.331 158.382 285.103C164.611 284.917 165.659 284.608 166.03 283.006" fill="#E3EDFF"/>
<path d="M164.858 266.601C164.858 266.601 164.119 260.926 159.245 258.581C154.37 256.237 145.92 261.173 146.291 270.115C146.663 279.056 150.726 285.331 158.382 285.103C164.611 284.917 165.659 284.608 166.03 283.006" stroke="#91CEED" stroke-width="0.976859" stroke-linecap="round" stroke-linejoin="round"/>
<path d="M165.969 279.74C165.969 279.74 157.463 287.356 151.596 278.134C145.982 269.313 153.891 258.249 159.678 261.541C164.552 264.315 165.721 271.472 165.721 271.472" fill="white"/>
<path d="M165.969 279.74C165.969 279.74 157.463 287.356 151.596 278.134C145.982 269.313 153.891 258.249 159.678 261.541C164.552 264.315 165.721 271.472 165.721 271.472" stroke="#91CEED" stroke-width="0.976859" stroke-linecap="round" stroke-linejoin="round"/>
<path d="M205.248 264.423C205.248 264.423 209.302 258.343 215.785 261.99C222.268 265.637 214.359 278.613 208.908 282.094C207.007 283.309 204.431 284.246 204.431 284.246" stroke="#91CEED" stroke-width="0.976859" stroke-linecap="round" stroke-linejoin="round"/>
<path d="M205.023 267.22C205.023 267.22 209.781 261.811 213.542 264.273C218.286 267.38 211.207 277.086 207.231 280.072C205.844 281.114 204.366 281.863 204.366 281.863" fill="white"/>
<path d="M205.023 267.22C205.023 267.22 209.781 261.811 213.542 264.273C218.286 267.38 211.207 277.086 207.231 280.072C205.844 281.114 204.366 281.863 204.366 281.863" stroke="#91CEED" stroke-width="0.976859" stroke-linecap="round" stroke-linejoin="round"/>
<path d="M164.959 297.187C164.959 297.187 166.125 313.614 164.64 317.323C163.155 321.032 160.189 325.695 160.189 325.695C160.189 325.695 162.27 331.777 177.346 330.462C187.815 329.547 188.804 325.906 188.804 325.906C183.295 320.397 184.565 313.718 184.565 313.718" fill="#E3EDFF"/>
<path d="M164.959 297.187C164.959 297.187 166.125 313.614 164.64 317.323C163.155 321.032 160.189 325.695 160.189 325.695C160.189 325.695 162.27 331.777 177.346 330.462C187.815 329.547 188.804 325.906 188.804 325.906C183.295 320.397 184.565 313.718 184.565 313.718" stroke="#91CEED" stroke-width="0.976859" stroke-linecap="round" stroke-linejoin="round"/>
<path d="M164.315 264.061C164.315 264.061 166.884 273.882 166.109 282.504C165.334 291.127 162.042 293.933 162.911 302.168C162.911 302.168 163.65 298.609 164.429 295.877C164.813 294.529 165.207 293.383 165.526 292.966" stroke="#91CEED" stroke-width="0.976859" stroke-linecap="round" stroke-linejoin="round"/>
<path d="M169.498 296.356C169.498 296.356 168.531 301.683 170.371 308.756C170.371 308.756 165.656 300.739 164.855 295.441" stroke="#91CEED" stroke-width="0.976859" stroke-linecap="round" stroke-linejoin="round"/>
<path d="M182.315 281.501C182.315 281.501 177.522 290.11 174.861 294.278C172.198 298.449 170.068 306.258 177.789 310.517C185.509 314.776 183.907 313.623 200.507 313.623C210.002 313.623 205.743 308.212 205.743 308.212" fill="white"/>
<path d="M182.315 281.501C182.315 281.501 177.522 290.11 174.861 294.278C172.198 298.449 170.068 306.258 177.789 310.517C185.509 314.776 183.907 313.623 200.507 313.623C210.002 313.623 205.743 308.212 205.743 308.212" stroke="#91CEED" stroke-width="0.976859" stroke-linecap="round" stroke-linejoin="round"/>
<path d="M181.341 309.723C181.341 309.723 189.329 309.902 195.45 309.544C201.572 309.186 207.254 307.502 207.254 307.502C207.254 307.502 209.383 304.22 208.498 299.782C207.612 295.343 200.51 283.188 200.689 280.349" fill="white"/>
<path d="M181.341 309.723C181.341 309.723 189.329 309.902 195.45 309.544C201.572 309.186 207.254 307.502 207.254 307.502C207.254 307.502 209.383 304.22 208.498 299.782C207.612 295.343 200.51 283.188 200.689 280.349" stroke="#91CEED" stroke-width="0.976859" stroke-linecap="round" stroke-linejoin="round"/>
<path d="M171.433 263.944L172.094 275.194L180.032 275.061" stroke="#91CEED" stroke-width="0.976859" stroke-linecap="round" stroke-linejoin="round"/>
<path d="M202.399 274.266L205.111 274.331L204.978 262.424L191.286 262.329" stroke="#91CEED" stroke-width="0.976859" stroke-linecap="round" stroke-linejoin="round"/>
<path d="M170.814 263.491C170.814 263.491 166.366 241.466 181.217 239.314L185.737 238.598H192.122C192.122 238.598 199.941 238.669 200.66 246.92C201.38 255.172 200.66 260.909 200.66 260.909" stroke="#91CEED" stroke-width="0.976859" stroke-linecap="round" stroke-linejoin="round"/>
<path d="M171.657 263.706C171.657 263.706 198.514 254.641 210.364 254.459C222.213 254.277 220.116 255.097 216.925 257.012C213.734 258.926 199.677 261.479 192.868 262.114C186.033 262.752 176.763 263.98 171.66 263.706H171.657Z" fill="#E3EDFF" stroke="#91CEED" stroke-width="0.976859" stroke-linecap="round" stroke-linejoin="round"/>
<path d="M170.101 263.856L171.416 263.774L172.094 275.194L170.374 274.995L170.101 263.856Z" stroke="#91CEED" stroke-width="0.976859" stroke-linecap="round" stroke-linejoin="round"/>
<path d="M189.403 271.27C189.403 271.27 189.351 265.836 188.922 263.905L175.259 264.465L175.513 273.38L186.815 272.924" fill="#FD8FB4"/>
<path d="M189.403 271.27C189.403 271.27 189.351 265.836 188.922 263.905L175.259 264.465L175.513 273.38L186.815 272.924" stroke="#91CEED" stroke-width="0.976859" stroke-linecap="round" stroke-linejoin="round"/>
<path d="M194.135 271.563L193.848 263.905L203.011 264.263L203.226 272.28H195.564" fill="#AADDFD"/>
<path d="M194.135 271.563L193.848 263.905L203.011 264.263L203.226 272.28H195.564" stroke="#91CEED" stroke-width="0.976859" stroke-linecap="round" stroke-linejoin="round"/>
<path d="M170.156 267.053L164.643 265.839" stroke="#91CEED" stroke-width="0.976859" stroke-linecap="round" stroke-linejoin="round"/>
<path d="M193.962 284.833C193.962 284.833 194.972 291.081 197.59 295.415C200.211 299.749 200.211 309.039 200.211 309.039" stroke="#91CEED" stroke-width="0.976859" stroke-linecap="round" stroke-linejoin="round"/>
<path d="M186.424 273.534C186.424 273.534 189.361 267.936 197.668 273.602L186.424 273.534Z" fill="white"/>
<path d="M186.424 273.534C186.424 273.534 189.361 267.936 197.668 273.602" stroke="#91CEED" stroke-width="0.976859" stroke-linecap="round" stroke-linejoin="round"/>
<path d="M159.059 278.323C159.059 278.323 155.344 276.458 157.727 271.378C159.639 267.308 163.745 266.419 164.301 267.405" stroke="#91CEED" stroke-width="0.976859" stroke-linecap="round" stroke-linejoin="round"/>
<path d="M151.719 270.118C151.719 270.118 153.878 262.345 160.912 267.649" stroke="#91CEED" stroke-width="0.976859" stroke-linecap="round" stroke-linejoin="round"/>
<path d="M203.701 279.118C203.701 279.118 204.652 284.572 205.004 291.185" stroke="#91CEED" stroke-width="0.976859" stroke-linecap="round" stroke-linejoin="round"/>
<path d="M205.681 263.892C205.681 263.892 205.658 260.994 206.739 260.021L205.681 263.892Z" fill="#606060"/>
<path d="M205.681 263.892C205.681 263.892 205.658 260.994 206.739 260.021" stroke="#91CEED" stroke-width="0.976859" stroke-linecap="round" stroke-linejoin="round"/>
<path d="M213.454 267.942C213.454 267.942 210.364 264.852 205.261 268.122" stroke="#91CEED" stroke-width="0.976859" stroke-linecap="round" stroke-linejoin="round"/>
<path d="M208.172 276.135C208.172 276.135 212.871 270.583 209.38 266.646" stroke="#91CEED" stroke-width="0.976859" stroke-linecap="round" stroke-linejoin="round"/>
<path d="M133.381 356.032C133.381 356.032 137.21 338.058 141.703 334.063C146.197 330.068 146.278 330.126 149.759 329.029C153.24 327.931 158.03 327.095 161.576 323.161" stroke="#91CEED" stroke-width="0.976859" stroke-linecap="round" stroke-linejoin="round"/>
<path d="M158.528 328.192C158.528 328.192 170.713 339.022 189.153 329.804" stroke="#91CEED" stroke-width="0.976859" stroke-linecap="round" stroke-linejoin="round"/>
<path d="M151.729 346.306C151.729 346.306 154.272 351.91 154.403 357.739" stroke="#91CEED" stroke-width="0.976859" stroke-linecap="round" stroke-linejoin="round"/>
<path d="M145.253 335.17C145.253 335.17 147.845 338.928 148.75 341.129" stroke="#91CEED" stroke-width="0.976859" stroke-linecap="round" stroke-linejoin="round"/>
<path d="M201.334 335.688C201.334 335.688 200.038 350.064 201.464 356.54" stroke="#91CEED" stroke-width="0.976859" stroke-linecap="round" stroke-linejoin="round"/>
<path d="M207.554 353.818C207.554 353.818 205.61 340.22 204.317 335.945C203.024 331.669 202.191 329.651 197.192 328.693C190.045 327.322 189.55 323.643 187.088 323.513" stroke="#91CEED" stroke-width="0.976859" stroke-linecap="round" stroke-linejoin="round"/>
<path d="M187.73 279.994C187.73 279.994 179.654 283.898 177.525 278.486C175.395 273.074 194.297 273.338 197.671 273.605C201.044 273.872 205.502 274.644 204.059 278.574C203.083 281.238 197.404 279.727 197.404 279.727" fill="white"/>
<path d="M187.73 279.994C187.73 279.994 179.654 283.898 177.525 278.486C175.395 273.074 194.297 273.338 197.671 273.605C201.044 273.872 205.502 274.644 204.059 278.574C203.083 281.238 197.404 279.727 197.404 279.727" stroke="#91CEED" stroke-width="0.976859" stroke-linecap="round" stroke-linejoin="round"/>
<path d="M194.662 282.012C194.662 282.012 194.591 277.092 198.478 276.483C202.366 275.874 203.07 280.182 196.346 278.99" stroke="#91CEED" stroke-width="0.976859" stroke-linecap="round" stroke-linejoin="round"/>
<path d="M190.778 282.443C190.778 282.443 190.66 275.399 182.732 276.614C179.772 277.067 181.748 280.919 187.297 278.975" stroke="#91CEED" stroke-width="0.976859" stroke-linecap="round" stroke-linejoin="round"/>
</g>
<rect x="103.632" y="226.484" width="146.668" height="143.143" stroke="#9ECCEA" stroke-width="1.41027"/>
<line x1="102.927" y1="423.57" x2="251.005" y2="423.57" stroke="url(#paint1_radial_1682_53139)" stroke-width="0.705137"/>
</g>
<rect x="103.632" y="226.484" width="146.668" height="224.939" rx="10.5771" stroke="#9ECCEA" stroke-width="1.41027"/>
<rect x="208.697" y="390.076" width="14.1027" height="14.1027" rx="7.05137" fill="#E6EDFF"/>
<path d="M217.907 395.573C217.734 395.471 217.509 395.471 217.318 395.573L215.964 396.35L215.045 396.857L213.692 397.634C213.518 397.735 213.293 397.735 213.102 397.634L212.027 397.026C211.853 396.925 211.732 396.739 211.732 396.536V395.336C211.732 395.133 211.836 394.948 212.027 394.846L213.084 394.255C213.258 394.153 213.484 394.153 213.675 394.255L214.733 394.846C214.907 394.948 215.028 395.133 215.028 395.336V396.114L215.947 395.589V394.812C215.948 394.711 215.921 394.612 215.869 394.526C215.817 394.439 215.742 394.369 215.652 394.323L213.692 393.208C213.518 393.106 213.293 393.106 213.102 393.208L211.107 394.323C211.018 394.369 210.943 394.439 210.891 394.526C210.839 394.612 210.812 394.711 210.813 394.812V397.059C210.813 397.263 210.916 397.448 211.107 397.55L213.102 398.665C213.276 398.766 213.501 398.766 213.692 398.665L215.045 397.904L215.964 397.381L217.318 396.62C217.491 396.519 217.716 396.519 217.907 396.62L218.965 397.212C219.139 397.313 219.26 397.498 219.26 397.702V398.901C219.26 399.104 219.157 399.29 218.965 399.391L217.908 399.999C217.734 400.101 217.508 400.101 217.318 399.999L216.259 399.408C216.086 399.306 215.964 399.121 215.964 398.918V398.141L215.045 398.665V399.442C215.045 399.644 215.149 399.831 215.34 399.932L217.335 401.047C217.509 401.148 217.734 401.148 217.925 401.047L219.92 399.932C220.093 399.831 220.214 399.645 220.214 399.442V397.195C220.215 397.094 220.188 396.995 220.136 396.908C220.084 396.822 220.009 396.751 219.92 396.705L217.908 395.573H217.907Z" fill="#6F41D8"/>
<rect x="112.798" y="391.486" width="41.6031" height="8.46164" rx="2.11541" fill="#EBF9F5"/>
<rect x="112.798" y="377.384" width="47.9493" height="8.46164" rx="2.11541" fill="#E6EDFF"/>
<rect x="112.798" y="402.769" width="56.4109" height="8.46164" rx="2.11541" fill="#EBF9F5"/>
<rect x="198.12" y="433.089" width="43.0134" height="8.46164" rx="2.11541" fill="#EBF9F5"/>
<rect x="198.12" y="377.384" width="43.0134" height="8.46164" rx="2.11541" fill="#EBF9F5"/>
<rect x="227.031" y="392.897" width="14.1027" height="8.46164" rx="2.11541" fill="#EBF9F5"/>
<g clip-path="url(#clip4_1682_53139)">
<rect x="265.108" y="225.779" width="148.079" height="226.349" rx="11.2822" fill="white"/>
<g clip-path="url(#clip5_1682_53139)">
<path d="M394.853 235.306H283.921V360.553H394.853V235.306Z" fill="white"/>
<path d="M340.537 351.493C365.388 351.493 385.534 331.347 385.534 306.496C385.534 281.644 365.388 261.498 340.537 261.498C315.685 261.498 295.539 281.644 295.539 306.496C295.539 331.347 315.685 351.493 340.537 351.493Z" fill="#E8FAF5"/>
<path d="M325.194 356.775L362.351 300.309L377.857 316.108C380.849 329.875 381.982 343.438 381.074 356.775" stroke="#9CDED5" stroke-width="0.976863" stroke-linecap="round" stroke-linejoin="round"/>
<path d="M363.891 292.803L373.07 293.298C373.07 293.298 373.168 304.946 365.47 309.286" fill="white"/>
<path d="M363.891 292.803L373.07 293.298C373.07 293.298 373.168 304.946 365.47 309.286" stroke="#9CDED5" stroke-width="0.976863" stroke-linecap="round" stroke-linejoin="round"/>
<path d="M354.545 262.82L303.224 239.525C303.224 239.525 297.08 244.517 294.393 249.252C291.707 253.986 288.122 258.721 291.065 261.795C294.009 264.868 301.56 270.752 301.56 270.752L305.783 267.552C305.783 267.552 308.984 266.272 304.888 260.896L304.377 264.735L302.329 265.503L299.128 258.594C299.128 258.594 301.43 255.266 305.142 258.594C308.854 261.922 317.555 273.185 320.371 277.278C323.188 281.374 354.542 262.817 354.542 262.817L354.545 262.82Z" fill="#E8FAF5" stroke="#9CDED5" stroke-width="0.976863" stroke-linecap="round" stroke-linejoin="round"/>
<path d="M329.951 263.595C321.508 269.088 317.822 273.761 317.822 273.761C317.822 273.761 319.762 276.395 320.371 277.281C323.188 281.377 354.542 262.82 354.542 262.82L343.318 257.728C343.318 257.728 338.395 258.102 329.948 263.598L329.951 263.595Z" fill="white" stroke="#9CDED5" stroke-width="0.976863" stroke-linecap="round" stroke-linejoin="round"/>
<path d="M329.638 263.745L333.311 269.746L339.804 266.783L334.871 260.727L329.638 263.745Z" fill="white" stroke="#9CDED5" stroke-width="0.976863" stroke-linecap="round" stroke-linejoin="round"/>
<path d="M332.211 264.4L334.431 263.12L336.854 266.093L334.034 267.379L332.211 264.4Z" fill="white" stroke="#9CDED5" stroke-width="0.976863" stroke-linecap="round" stroke-linejoin="round"/>
<path d="M356.226 277.854L393.607 262.735C393.607 262.735 361.156 252.615 323.563 272.537C297.643 286.268 287.744 305.698 287.744 305.698L356.222 277.854H356.226Z" fill="#E8FAF5" stroke="#9CDED5" stroke-width="0.976863" stroke-linecap="round" stroke-linejoin="round"/>
<path d="M363.887 291.396V277.909C363.887 277.909 363.839 272.918 361.68 271.332C359.521 269.749 350.869 268.815 342.325 271.309C333.781 273.806 326.783 278.245 326.783 278.245V298.394H359.286L363.887 291.396Z" fill="white" stroke="#9CDED5" stroke-width="0.976863" stroke-linecap="round" stroke-linejoin="round"/>
<path d="M365.177 303.718L364.285 300.69L358.7 297.603L354.484 297.544L353.415 297.485L340.348 294.633L337.496 291.842C337.496 291.842 337.675 290.003 337.496 288.101C337.317 286.199 334.764 285.428 334.764 285.428L334.823 274.083L326.78 278.248L326.311 295.668C326.311 295.668 330.423 336.693 331.055 343.652C331.309 346.429 332.586 348.969 334.028 351.024C334.331 352.079 335.256 352.89 336.62 353.505C335.943 352.776 335.204 351.903 334.507 350.907C336.581 351.206 338.697 351.366 340.856 351.366C353.946 351.366 365.695 345.638 373.741 336.557C373.588 341.62 372.761 347.165 370.918 353.111C371.354 353.01 371.601 352.932 371.618 352.88C373.868 346.13 374.216 336.322 374.216 336.322C374.825 316.323 365.17 303.718 365.17 303.718H365.177Z" fill="#E8FAF5"/>
<path d="M363.598 279.473L356.971 279.284" stroke="#9CDED5" stroke-width="0.976863" stroke-linecap="round" stroke-linejoin="round"/>
<path d="M357.916 281.231C357.916 281.231 362.312 282.237 362.908 279.661L357.916 281.231Z" fill="white"/>
<path d="M357.916 281.231C357.916 281.231 362.312 282.237 362.908 279.661" stroke="#9CDED5" stroke-width="0.976863" stroke-linecap="round" stroke-linejoin="round"/>
<path d="M359.794 282.611C359.794 282.611 362.067 282.956 363.001 282.139L359.794 282.611Z" fill="white"/>
<path d="M359.794 282.611C359.794 282.611 362.067 282.956 363.001 282.139" stroke="#9CDED5" stroke-width="0.976863" stroke-linecap="round" stroke-linejoin="round"/>
<path d="M344.487 284.334C344.487 284.334 346.786 284.37 347.6 283.435L344.487 284.334Z" fill="white"/>
<path d="M344.487 284.334C344.487 284.334 346.786 284.37 347.6 283.435" stroke="#9CDED5" stroke-width="0.976863" stroke-linecap="round" stroke-linejoin="round"/>
<path d="M361.807 283.523C361.807 283.523 362.53 283.396 362.937 283.051L361.807 283.523Z" fill="white"/>
<path d="M361.807 283.523C361.807 283.523 362.53 283.396 362.937 283.051" stroke="#9CDED5" stroke-width="0.976863" stroke-linecap="round" stroke-linejoin="round"/>
<path d="M358.355 279.349C358.355 279.349 359.045 280.231 359.895 280.169C360.745 280.107 361.341 279.599 361.341 279.599L358.358 279.349H358.355Z" fill="#E8FAF5" stroke="#9CDED5" stroke-width="0.976863" stroke-linecap="round" stroke-linejoin="round"/>
<path d="M342.325 271.309C342.325 271.309 360.752 272.013 362.36 271.209C363.972 270.404 365.382 268.441 363.52 266.324C363.52 266.324 353.201 266.93 342.325 271.309Z" fill="#E8FAF5" stroke="#9CDED5" stroke-width="0.976863" stroke-linecap="round" stroke-linejoin="round"/>
<path d="M338.759 356.095C338.759 356.095 331.693 350.611 331.061 343.649C330.429 336.688 326.317 295.666 326.317 295.666L326.786 278.242L334.829 274.077L334.77 285.422C334.77 285.422 337.323 286.194 337.502 288.095C337.681 289.997 337.502 291.837 337.502 291.837L340.354 294.627L353.422 297.48L354.49 297.538L358.706 297.597L364.291 300.684L365.183 303.712C365.183 303.712 381.477 324.978 370.403 356.091" stroke="#9CDED5" stroke-width="0.976863" stroke-linecap="round" stroke-linejoin="round"/>
<path d="M374.223 336.322C374.832 316.323 365.177 303.718 365.177 303.718L364.285 300.69L358.7 297.603L354.484 297.544L353.415 297.485L340.348 294.633L337.496 291.842C337.496 291.842 337.675 290.003 337.496 288.101C337.317 286.199 334.764 285.428 334.764 285.428L334.823 274.083L326.78 278.248L326.311 295.668C326.311 295.668 330.423 336.693 331.055 343.652C331.309 346.429 332.586 348.969 334.028 351.024" stroke="#9CDED5" stroke-width="0.976863" stroke-linecap="round" stroke-linejoin="round"/>
<path d="M334.735 316.776C334.735 316.776 331.27 293.943 350.449 289.003L354.555 289.196L359.365 289.003C359.365 289.003 368.157 291.201 367.124 299.459C366.61 303.565 365.177 303.718 365.177 303.718L358.635 297.903C358.635 297.903 359.987 297.264 359.762 296.177C359.537 295.089 359.088 295.05 358.222 295.089C357.356 295.128 356.382 295.089 356.382 295.089C354.438 298.906 350.706 302.66 343.058 306.274" fill="#E8FAF5"/>
<path d="M334.735 316.776C334.735 316.776 331.27 293.943 350.449 289.003L354.555 289.196L359.365 289.003C359.365 289.003 368.157 291.201 367.124 299.459C366.61 303.565 365.177 303.718 365.177 303.718L358.635 297.903C358.635 297.903 359.987 297.264 359.762 296.177C359.537 295.089 359.088 295.05 358.222 295.089C357.356 295.128 356.382 295.089 356.382 295.089C354.438 298.906 350.706 302.66 343.058 306.274" stroke="#9CDED5" stroke-width="0.976863" stroke-linecap="round" stroke-linejoin="round"/>
<path d="M350.889 284.441C350.889 284.441 348.707 284.409 348.674 286.887C348.642 289.365 351.318 288.736 352.539 290.488C353.761 292.24 355.415 293.165 355.415 293.165L357.199 293.197C357.199 293.197 360.67 288.473 359.348 284.243C358.026 280.013 355.945 280.045 357.167 279.088C358.388 278.131 358.984 277.668 358.984 277.668" fill="white"/>
<path d="M350.889 284.441C350.889 284.441 348.707 284.409 348.674 286.887C348.642 289.365 351.318 288.736 352.539 290.488C353.761 292.24 355.415 293.165 355.415 293.165L357.199 293.197C357.199 293.197 360.67 288.473 359.348 284.243C358.026 280.013 355.945 280.045 357.167 279.088C358.388 278.131 358.984 277.668 358.984 277.668" stroke="#9CDED5" stroke-width="0.976863" stroke-linecap="round" stroke-linejoin="round"/>
<path d="M357.463 274.152C357.463 274.152 358.844 275.532 358.912 276.734C358.912 276.734 363.438 276.946 365.278 278.219C367.118 279.492 362.201 274.539 358.062 274.647" fill="#E8FAF5"/>
<path d="M357.463 274.152C357.463 274.152 358.844 275.532 358.912 276.734C358.912 276.734 363.438 276.946 365.278 278.219C367.118 279.492 362.201 274.539 358.062 274.647" stroke="#9CDED5" stroke-width="0.976863" stroke-linecap="round" stroke-linejoin="round"/>
<path d="M333.302 279.44C333.302 279.44 343.663 275.347 349.847 278.177C349.847 278.177 350.326 276.653 349.629 275.129C349.629 275.129 343.999 273.739 338.492 276.142C335.402 277.493 333.299 279.44 333.299 279.44H333.302Z" fill="#E8FAF5" stroke="#9CDED5" stroke-width="0.976863" stroke-linecap="round" stroke-linejoin="round"/>
<path d="M337.991 280.28C337.991 280.28 338.977 279.97 340.534 279.716C341.455 279.567 342.579 279.436 343.816 279.401C344.884 279.371 346.037 279.41 347.219 279.57C347.782 279.645 348.355 279.749 348.928 279.886C348.928 279.886 349.006 282.66 344.887 283.096C340.768 283.533 338.668 281.592 337.994 280.283L337.991 280.28Z" fill="white" stroke="#9CDED5" stroke-width="0.976863" stroke-linecap="round" stroke-linejoin="round"/>
<path d="M346.942 279.567C346.454 279.496 345.969 279.447 345.493 279.421C344.917 279.388 344.357 279.382 343.816 279.401C343.25 279.421 342.706 279.46 342.201 279.518C341.697 279.577 341.228 279.645 340.804 279.72C340.804 279.72 340.98 281.511 344.035 281.511C347.089 281.511 346.939 279.57 346.939 279.57L346.942 279.567Z" fill="white" stroke="#9CDED5" stroke-width="0.976863" stroke-linecap="round" stroke-linejoin="round"/>
<path d="M342.178 279.515C342.69 279.46 343.24 279.417 343.816 279.398C344.36 279.381 344.93 279.385 345.516 279.417C345.516 279.417 345.571 280.143 344.035 280.254C342.765 280.342 342.178 279.512 342.178 279.512V279.515Z" fill="#E8FAF5" stroke="#9CDED5" stroke-width="0.976863" stroke-linecap="round" stroke-linejoin="round"/>
<path d="M348.414 278.411C348.414 278.411 348.45 278.753 348.756 279.098C349.062 279.443 348.925 279.886 348.925 279.886" fill="white"/>
<path d="M348.414 278.411C348.414 278.411 348.45 278.753 348.756 279.098C349.062 279.443 348.925 279.886 348.925 279.886" stroke="#9CDED5" stroke-width="0.976863" stroke-linecap="round" stroke-linejoin="round"/>
<path d="M288.011 356.023C288.803 340.914 290.568 327.476 294.068 316.991C300.421 311.208 306.992 305.929 314.032 301.739L309.769 293.438L329.509 293.663L332.426 347.723" stroke="#9CDED5" stroke-width="0.976863" stroke-linecap="round" stroke-linejoin="round"/>
<path d="M314.032 301.739L309.769 293.438L329.508 293.663L332.426 347.723L314.032 301.739Z" fill="white" stroke="#9CDED5" stroke-width="0.976863" stroke-linecap="round" stroke-linejoin="round"/>
</g>
<rect x="265.813" y="226.484" width="146.668" height="143.143" stroke="#9ECCEA" stroke-width="1.41027"/>
<line x1="265.108" y1="423.57" x2="413.187" y2="423.57" stroke="url(#paint2_radial_1682_53139)" stroke-width="0.705137"/>
</g>
<rect x="265.813" y="226.484" width="146.668" height="224.939" rx="10.5771" stroke="#9ECCEA" stroke-width="1.41027"/>
<rect x="370.879" y="390.076" width="14.1027" height="14.1027" rx="7.05137" fill="#E6EDFF"/>
<path d="M380.089 395.573C379.915 395.471 379.69 395.471 379.499 395.573L378.146 396.35L377.227 396.857L375.873 397.634C375.7 397.735 375.475 397.735 375.284 397.634L374.208 397.026C374.035 396.925 373.914 396.739 373.914 396.536V395.336C373.914 395.133 374.018 394.948 374.208 394.846L375.266 394.255C375.44 394.153 375.666 394.153 375.857 394.255L376.914 394.846C377.088 394.948 377.209 395.133 377.209 395.336V396.114L378.129 395.589V394.812C378.13 394.711 378.103 394.612 378.05 394.526C377.998 394.439 377.923 394.369 377.834 394.323L375.873 393.208C375.7 393.106 375.475 393.106 375.284 393.208L373.289 394.323C373.199 394.369 373.124 394.439 373.072 394.526C373.02 394.612 372.993 394.711 372.994 394.812V397.059C372.994 397.263 373.098 397.448 373.289 397.55L375.284 398.665C375.457 398.766 375.683 398.766 375.873 398.665L377.227 397.904L378.146 397.381L379.499 396.62C379.673 396.519 379.898 396.519 380.089 396.62L381.147 397.212C381.321 397.313 381.442 397.498 381.442 397.702V398.901C381.442 399.104 381.338 399.29 381.147 399.391L380.089 399.999C379.915 400.101 379.69 400.101 379.499 399.999L378.441 399.408C378.267 399.306 378.146 399.121 378.146 398.918V398.141L377.227 398.665V399.442C377.227 399.644 377.331 399.831 377.522 399.932L379.517 401.047C379.69 401.148 379.915 401.148 380.106 401.047L382.101 399.932C382.275 399.831 382.396 399.645 382.396 399.442V397.195C382.397 397.094 382.37 396.995 382.318 396.908C382.266 396.822 382.191 396.751 382.101 396.705L380.089 395.573H380.089Z" fill="#6F41D8"/>
<rect x="274.98" y="391.486" width="41.6031" height="8.46164" rx="2.11541" fill="#EBF9F5"/>
<rect x="274.98" y="377.384" width="47.9493" height="8.46164" rx="2.11541" fill="#E6EDFF"/>
<rect x="274.98" y="402.769" width="56.4109" height="8.46164" rx="2.11541" fill="#EBF9F5"/>
<rect x="360.302" y="433.089" width="43.0134" height="8.46164" rx="2.11541" fill="#EBF9F5"/>
<rect x="360.302" y="377.384" width="43.0134" height="8.46164" rx="2.11541" fill="#EBF9F5"/>
<rect x="389.212" y="392.897" width="14.1027" height="8.46164" rx="2.11541" fill="#EBF9F5"/>
<g clip-path="url(#clip6_1682_53139)">
<rect x="427.289" y="225.779" width="148.079" height="226.349" rx="11.2822" fill="white"/>
<g clip-path="url(#clip7_1682_53139)">
<path d="M556.554 235.651H445.622V360.898H556.554V235.651Z" fill="white"/>
<path d="M502.237 351.839C527.089 351.839 547.235 331.693 547.235 306.841C547.235 281.99 527.089 261.844 502.237 261.844C477.386 261.844 457.24 281.99 457.24 306.841C457.24 331.693 477.386 351.839 502.237 351.839Z" fill="#FCF0D6"/>
<path d="M492.407 317.322H488.49V321.773H492.407V317.322Z" fill="#F0DC7D"/>
<path d="M476.542 325.761H488.49V321.771H476.542V325.761Z" fill="#F0DC7D"/>
<path d="M476.545 325.761H469.115V329.297H476.545V325.761Z" fill="#F0DC7D"/>
<path d="M465.237 332.958H469.115V329.297H465.237V332.958Z" fill="#F0DC7D"/>
<path d="M465.237 332.958H461.025V341.216H465.237V332.958Z" fill="#F0DC7D"/>
<path d="M476.542 333.282H507.529V329.3H476.542V333.282Z" fill="#F0DC7D"/>
<path d="M476.542 337.034H480.276V333.279H476.542V337.034Z" fill="#F0DC7D"/>
<path d="M484.426 337.034H480.276V352.468H484.426V337.034Z" fill="#F0DC7D"/>
<path d="M511.69 333.279H507.531V337.052H511.69V333.279Z" fill="#F0DC7D"/>
<path d="M519.528 333.279H515.369V337.052H519.528V333.279Z" fill="#F0DC7D"/>
<path d="M519.528 333.282H530.677V329.401H519.528V333.282Z" fill="#F0DC7D"/>
<path d="M535.178 325.236H530.677V329.398H535.178V325.236Z" fill="#F0DC7D"/>
<path d="M535.177 334.085H539.481V329.401H535.177V334.085Z" fill="#F0DC7D"/>
<path d="M543.59 334.085H539.481V349.236H543.59V334.085Z" fill="#F0DC7D"/>
<path d="M543.59 336.975H547.158V328.536H543.59V336.975Z" fill="#F0DC7D"/>
<path d="M538.743 321.529H523.556V325.236H538.743V321.529Z" fill="#F0DC7D"/>
<path d="M538.743 329.531H543.743V325.236H538.743V329.531Z" fill="#F0DC7D"/>
<path d="M511.475 321.529H523.556V317.237H511.475V321.529Z" fill="#F0DC7D"/>
<path d="M526.634 302.399H526.434V305.908H526.634V302.399Z" fill="white" stroke="#91CEED" stroke-width="0.880625" stroke-linecap="round" stroke-linejoin="round"/>
<path d="M507.572 317.553V305.908H526.437V302.399H526.637V302.095H530.844V259.54H496.32V270.981V274.995H492.105V270.981V269.779H492.102V270.984H487.896V274.797H492.102V282.826H496.117V317.556" fill="white"/>
<path d="M493.715 259.538H492.109V263.555H492.103V269.777V270.978V270.981V274.993H493.715H496.321V270.981V270.978V269.777V259.538H493.715Z" fill="#FEF9EE"/>
<path d="M530.852 255.523H530.844V259.537H530.852V255.523Z" fill="white" stroke="#91CEED" stroke-width="0.880625" stroke-linecap="round" stroke-linejoin="round"/>
<path d="M499.736 259.538H503.449H499.736Z" stroke="#91CEED" stroke-width="0.880625" stroke-linecap="round" stroke-linejoin="round"/>
<path d="M499.736 259.538H503.449H499.736Z" stroke="#91CEED" stroke-width="0.880625" stroke-linecap="round" stroke-linejoin="round"/>
<path d="M504.349 259.538H503.449V259.541H507.859V259.538H504.349Z" fill="white" stroke="#91CEED" stroke-width="0.880625" stroke-linecap="round" stroke-linejoin="round"/>
<path d="M504.349 259.538H503.449V259.541H507.859V259.538H504.349Z" fill="white" stroke="#91CEED" stroke-width="0.880625" stroke-linecap="round" stroke-linejoin="round"/>
<path d="M514.999 259.336H509.775V259.54H514.999V259.336Z" fill="white" stroke="#91CEED" stroke-width="0.880625" stroke-linecap="round" stroke-linejoin="round"/>
<path d="M514.999 259.336H509.775V259.54H514.999V259.336Z" fill="white" stroke="#91CEED" stroke-width="0.880625" stroke-linecap="round" stroke-linejoin="round"/>
<path d="M508.166 259.336V259.537H507.859V259.54H509.775V259.336H508.166Z" fill="white" stroke="#91CEED" stroke-width="0.880625" stroke-linecap="round" stroke-linejoin="round"/>
<path d="M508.166 259.336V259.537H507.859V259.54H509.775V259.336H508.166Z" fill="white" stroke="#91CEED" stroke-width="0.880625" stroke-linecap="round" stroke-linejoin="round"/>
<path d="M535.067 255.325H530.855V255.523H535.067V255.325Z" fill="white" stroke="#91CEED" stroke-width="0.880625" stroke-linecap="round" stroke-linejoin="round"/>
<path d="M535.067 255.325H530.855V255.523H535.067V255.325Z" fill="white" stroke="#91CEED" stroke-width="0.880625" stroke-linecap="round" stroke-linejoin="round"/>
<path d="M527.242 259.54H526.434" stroke="#91CEED" stroke-width="0.880625" stroke-linecap="round" stroke-linejoin="round"/>
<path d="M526.434 259.336H514.996V259.54H526.434V259.336Z" fill="white" stroke="#91CEED" stroke-width="0.880625" stroke-linecap="round" stroke-linejoin="round"/>
<path d="M526.434 259.336H514.996V259.54H526.434V259.336Z" fill="white" stroke="#91CEED" stroke-width="0.880625" stroke-linecap="round" stroke-linejoin="round"/>
<path d="M507.859 259.336H504.349V259.537H507.859V259.336Z" fill="white" stroke="#91CEED" stroke-width="0.880625" stroke-linecap="round" stroke-linejoin="round"/>
<path d="M507.859 259.336H504.349V259.537H507.859V259.336Z" fill="white" stroke="#91CEED" stroke-width="0.880625" stroke-linecap="round" stroke-linejoin="round"/>
<path d="M507.859 259.336H504.349V259.537H507.859V259.336Z" fill="white" stroke="#91CEED" stroke-width="0.880625" stroke-linecap="round" stroke-linejoin="round"/>
<path d="M508.166 259.336H507.859V259.537H508.166V259.336Z" fill="white" stroke="#91CEED" stroke-width="0.880625" stroke-linecap="round" stroke-linejoin="round"/>
<path d="M508.166 259.336H507.859V259.537H508.166V259.336Z" fill="white" stroke="#91CEED" stroke-width="0.880625" stroke-linecap="round" stroke-linejoin="round"/>
<path d="M508.166 259.336H507.859V259.537H508.166V259.336Z" fill="white" stroke="#91CEED" stroke-width="0.880625" stroke-linecap="round" stroke-linejoin="round"/>
<path d="M496.321 259.538H499.739H496.321Z" stroke="#91CEED" stroke-width="0.880625" stroke-linecap="round" stroke-linejoin="round"/>
<path d="M496.321 259.538H499.739H496.321Z" stroke="#91CEED" stroke-width="0.880625" stroke-linecap="round" stroke-linejoin="round"/>
<path d="M493.711 259.336H492.108V259.537H493.711V259.336Z" fill="white" stroke="#91CEED" stroke-width="0.880625" stroke-linecap="round" stroke-linejoin="round"/>
<path d="M493.711 259.336H492.108V259.537H493.711V259.336Z" fill="white" stroke="#91CEED" stroke-width="0.880625" stroke-linecap="round" stroke-linejoin="round"/>
<path d="M495.919 259.537V259.336H493.714V259.537H496.321H495.919Z" fill="white" stroke="#91CEED" stroke-width="0.880625" stroke-linecap="round" stroke-linejoin="round"/>
<path d="M495.919 259.537V259.336H493.714V259.537H496.321H495.919Z" fill="white" stroke="#91CEED" stroke-width="0.880625" stroke-linecap="round" stroke-linejoin="round"/>
<path d="M499.736 259.538H503.449H499.736Z" stroke="#91CEED" stroke-width="0.880625" stroke-linecap="round" stroke-linejoin="round"/>
<path d="M499.736 259.538H503.449H499.736Z" stroke="#91CEED" stroke-width="0.880625" stroke-linecap="round" stroke-linejoin="round"/>
<path d="M499.736 259.538H503.449H499.736Z" stroke="#91CEED" stroke-width="0.880625" stroke-linecap="round" stroke-linejoin="round"/>
<path d="M503.449 259.538H504.349H503.449Z" stroke="#91CEED" stroke-width="0.880625" stroke-linecap="round" stroke-linejoin="round"/>
<path d="M503.449 259.538H504.349H503.449Z" stroke="#91CEED" stroke-width="0.880625" stroke-linecap="round" stroke-linejoin="round"/>
<path d="M503.449 259.538H504.349H503.449Z" stroke="#91CEED" stroke-width="0.880625" stroke-linecap="round" stroke-linejoin="round"/>
<path d="M499.739 259.336H496.321V259.537H499.739V259.336Z" fill="white" stroke="#91CEED" stroke-width="0.880625" stroke-linecap="round" stroke-linejoin="round"/>
<path d="M499.739 259.336H496.321V259.537H499.739V259.336Z" fill="white" stroke="#91CEED" stroke-width="0.880625" stroke-linecap="round" stroke-linejoin="round"/>
<path d="M499.739 259.336H496.321V259.537H499.739V259.336Z" fill="white" stroke="#91CEED" stroke-width="0.880625" stroke-linecap="round" stroke-linejoin="round"/>
<path d="M496.318 259.336H495.919V259.537H496.318V259.336Z" fill="white" stroke="#91CEED" stroke-width="0.880625" stroke-linecap="round" stroke-linejoin="round"/>
<path d="M496.318 259.336H495.919V259.537H496.318V259.336Z" fill="white" stroke="#91CEED" stroke-width="0.880625" stroke-linecap="round" stroke-linejoin="round"/>
<path d="M496.318 259.336H495.919V259.537H496.318V259.336Z" fill="white" stroke="#91CEED" stroke-width="0.880625" stroke-linecap="round" stroke-linejoin="round"/>
<path d="M503.449 259.336H499.736V259.537H503.449V259.336Z" fill="white" stroke="#91CEED" stroke-width="0.880625" stroke-linecap="round" stroke-linejoin="round"/>
<path d="M503.449 259.336H499.736V259.537H503.449V259.336Z" fill="white" stroke="#91CEED" stroke-width="0.880625" stroke-linecap="round" stroke-linejoin="round"/>
<path d="M503.449 259.336H499.736V259.537H503.449V259.336Z" fill="white" stroke="#91CEED" stroke-width="0.880625" stroke-linecap="round" stroke-linejoin="round"/>
<path d="M503.449 259.336H499.736V259.537H503.449V259.336Z" fill="white" stroke="#91CEED" stroke-width="0.880625" stroke-linecap="round" stroke-linejoin="round"/>
<path d="M504.349 259.336H503.449V259.537H504.349V259.336Z" fill="white" stroke="#91CEED" stroke-width="0.880625" stroke-linecap="round" stroke-linejoin="round"/>
<path d="M504.349 259.336H503.449V259.537H504.349V259.336Z" fill="white" stroke="#91CEED" stroke-width="0.880625" stroke-linecap="round" stroke-linejoin="round"/>
<path d="M504.349 259.336H503.449V259.537H504.349V259.336Z" fill="white" stroke="#91CEED" stroke-width="0.880625" stroke-linecap="round" stroke-linejoin="round"/>
<path d="M504.349 259.336H503.449V259.537H504.349V259.336Z" fill="white" stroke="#91CEED" stroke-width="0.880625" stroke-linecap="round" stroke-linejoin="round"/>
<path d="M492.109 259.538H492.103V263.555H492.109V259.538Z" fill="white" stroke="#91CEED" stroke-width="0.880625" stroke-linecap="round" stroke-linejoin="round"/>
<path d="M492.109 259.538H492.103V263.555H492.109V259.538Z" fill="white" stroke="#91CEED" stroke-width="0.880625" stroke-linecap="round" stroke-linejoin="round"/>
<path d="M492.109 255.325H492.103V259.337H492.109V255.325Z" fill="white" stroke="#91CEED" stroke-width="0.880625" stroke-linecap="round" stroke-linejoin="round"/>
<path d="M492.109 255.325H492.103V259.337H492.109V255.325Z" fill="white" stroke="#91CEED" stroke-width="0.880625" stroke-linecap="round" stroke-linejoin="round"/>
<path d="M492.109 259.336H492.103V259.537H492.109V259.336Z" fill="white" stroke="#91CEED" stroke-width="0.880625" stroke-linecap="round" stroke-linejoin="round"/>
<path d="M492.109 259.336H492.103V259.537H492.109V259.336Z" fill="white" stroke="#91CEED" stroke-width="0.880625" stroke-linecap="round" stroke-linejoin="round"/>
<path d="M492.109 259.336H492.103V259.537H492.109V259.336Z" fill="white" stroke="#91CEED" stroke-width="0.880625" stroke-linecap="round" stroke-linejoin="round"/>
<path d="M484.272 270.978H483.678V270.984H484.272V270.978Z" fill="white" stroke="#91CEED" stroke-width="0.880625" stroke-linecap="round" stroke-linejoin="round"/>
<path d="M484.272 270.978H483.678V270.984H484.272V270.978Z" fill="white" stroke="#91CEED" stroke-width="0.880625" stroke-linecap="round" stroke-linejoin="round"/>
<path d="M496.117 317.553V317.754H491.902V282.826H487.885V282.823V281.02V278.608V274.992H483.678V270.984H484.272V270.978H487.885V269.777V266.967H492.1V269.777V270.981H487.893V274.795H492.1V278.608V281.02V282.823H493.714H496.117V284.742V317.754" fill="#F0DC7D"/>
<path d="M526.635 302.399V305.909H526.434H511.788H509.774H507.767H507.573V307.816V317.553V317.754H511.788V310.124H526.835V306.112H530.853V302.095H530.844H526.635V302.399Z" fill="#F0DC7D"/>
<path d="M535.168 254.69V254.89H530.943V301.935H535.174V254.69H535.168Z" fill="#F0DC7D"/>
<path d="M535.168 254.69V254.89H530.943V301.935H535.174V254.69H535.168Z" stroke="#FCF0D6" stroke-width="0.880625" stroke-linecap="round" stroke-linejoin="round"/>
<path d="M533.486 250.287H529.058V246.281H496.371V250.077H492.363V254.505H488.354V258.726H480.128H476.55H475.913H475.91H471.485V262.944H475.91V275.175H480.128V270.952H483.933V267.371H488.36V263.15H496.371V263.153H512.402V267.581H525.268V263.153H529.058V258.935H533.486V250.287Z" fill="#F0DC7D"/>
<path d="M529.058 250.287V246.281H496.371V250.077H492.363V254.505H488.354V258.726H471.485V262.944H475.91V275.175H480.128V270.955H483.933V267.374H487.885V270.981H484.272V270.987H483.679V274.998H487.885V282.829H491.902V317.76H496.117V282.829H492.1V275.069H496.374V263.159H512.402V267.587H525.265V263.159H529.058V258.941H533.483V250.296H529.058V250.287ZM488.36 263.15H491.911V266.964H488.36V263.15ZM487.894 274.795V270.981H491.911V274.795H487.894Z" fill="#F0DC7D"/>
<path d="M520.366 249.049H518.251V251.869H520.366V249.049Z" fill="#FCF0D6"/>
<path d="M514.02 249.049H512.61V251.869H514.02V249.049Z" fill="#FCF0D6"/>
<path d="M523.693 251.838H520.497V254.395H523.693V251.838Z" fill="#FCF0D6"/>
<path d="M504.853 280.78H511.2V272.318H504.853V280.78Z" fill="#FCF0D6"/>
<path d="M508.534 277.324H504.98V281.108H508.534V277.324Z" fill="#F0DC7D"/>
<path d="M519.668 281.689H516.348V291.223H519.668V281.689Z" fill="#F0DC7D"/>
<path d="M523.318 249.281H520.122V251.838H523.318V249.281Z" fill="white"/>
<path d="M516.926 249.281H513.73V251.838H516.926V249.281Z" fill="white"/>
<path d="M518.843 251.838H515.647V254.395H518.843V251.838Z" fill="white"/>
<path d="M526.514 251.838H523.318V254.395H526.514V251.838Z" fill="white"/>
<path d="M529.71 254.395H526.514V256.951H529.71V254.395Z" fill="white"/>
<path d="M524.312 300.265V296.944H511.702V300.265H524.312Z" fill="#F0DC7D"/>
<path d="M522.482 281.485H529.533V272.319H522.482V281.485Z" fill="#FCF0D6" stroke="white" stroke-width="0.220156" stroke-linecap="round" stroke-linejoin="round"/>
<path d="M504.635 276.498H511.486V272.649H504.635V276.498Z" fill="#F0DC7D" stroke="white" stroke-width="0.220156" stroke-linecap="round" stroke-linejoin="round"/>
<path d="M526.422 277.324H522.868V281.108H526.422V277.324Z" fill="#F0DC7D"/>
<path d="M522.523 276.203H529.374V272.646H522.523V276.203Z" fill="#F0DC7D" stroke="white" stroke-width="0.220156" stroke-linecap="round" stroke-linejoin="round"/>
<path d="M488.491 321.771V317.319H492.408V321.771H488.491ZM488.491 321.771H476.542V325.761H488.491V321.771ZM469.116 329.297V325.761H476.545V329.297H469.116ZM469.116 329.297V332.957H465.237M469.116 329.297H465.237V332.957M465.237 332.957V341.216H461.025V332.957H465.237ZM507.532 333.282H480.279V337.037H476.545V329.3H507.532V333.282ZM507.532 333.282H511.691V337.054H507.532V333.282ZM519.531 333.282V337.054H515.372V333.282H519.531ZM519.531 333.282H530.679V329.401M519.531 333.282V329.401H530.679M530.679 329.401V325.239H523.56V321.531H538.746V325.239M530.679 329.401H535.181M538.746 325.239H543.747V328.536H547.162V336.975H543.593V349.236H539.484V334.085M538.746 325.239V329.401H535.181M538.746 325.239H535.181V329.401M535.181 329.401V334.085H539.484M539.484 334.085V329.533H543.593V334.085H539.484ZM529.059 250.286V246.281H496.372V250.077H492.363V254.504H488.355V258.725H471.486V262.943H475.911V275.175H480.129V270.954H483.933V267.374H487.886V270.981H484.273V270.986H483.679V274.998H487.886V282.829H491.903V317.464H496.118V282.829H492.101V275.069H496.375V263.159H512.402V267.586H525.266V263.159H529.059V258.941H533.484V250.295H529.059V250.286ZM484.426 352.471V337.037H480.276V352.471H484.426ZM511.791 317.24V310.129H526.842V306.115H530.857V302.1H526.641V305.914H507.576V317.759H511.479V321.534H523.56V317.243H511.791V317.24ZM488.361 263.15H491.912V266.963H488.361V263.15ZM487.894 274.794V270.981H491.912V274.794H487.894Z" stroke="#FCF0D6" stroke-width="0.880625" stroke-linecap="round" stroke-linejoin="round"/>
<path d="M508.617 317.675H503.504V323.428H508.617V317.675Z" fill="white"/>
<path d="M511.174 318.314H506.061V325.984H511.174V318.314Z" fill="white"/>
<path d="M504.551 315.504H499.385V320.67H504.551V315.504Z" fill="white"/>
</g>
<rect x="427.994" y="226.484" width="146.668" height="143.143" stroke="#9ECCEA" stroke-width="1.41027"/>
<line x1="427.289" y1="423.57" x2="575.368" y2="423.57" stroke="url(#paint3_radial_1682_53139)" stroke-width="0.705137"/>
</g>
<rect x="427.994" y="226.484" width="146.668" height="224.939" rx="10.5771" stroke="#9ECCEA" stroke-width="1.41027"/>
<rect x="533.059" y="390.076" width="14.1027" height="14.1027" rx="7.05137" fill="#E6EDFF"/>
<path d="M542.269 395.573C542.096 395.471 541.871 395.471 541.68 395.573L540.327 396.35L539.408 396.857L538.054 397.634C537.881 397.735 537.656 397.735 537.465 397.634L536.389 397.026C536.216 396.925 536.094 396.739 536.094 396.536V395.336C536.094 395.133 536.198 394.948 536.389 394.846L537.447 394.255C537.621 394.153 537.846 394.153 538.037 394.255L539.095 394.846C539.269 394.948 539.39 395.133 539.39 395.336V396.114L540.309 395.589V394.812C540.31 394.711 540.283 394.612 540.231 394.526C540.179 394.439 540.104 394.369 540.014 394.323L538.054 393.208C537.881 393.106 537.656 393.106 537.465 393.208L535.47 394.323C535.38 394.369 535.305 394.439 535.253 394.526C535.201 394.612 535.174 394.711 535.175 394.812V397.059C535.175 397.263 535.279 397.448 535.47 397.55L537.465 398.665C537.638 398.766 537.864 398.766 538.054 398.665L539.408 397.904L540.327 397.381L541.68 396.62C541.853 396.519 542.079 396.519 542.269 396.62L543.328 397.212C543.502 397.313 543.622 397.498 543.622 397.702V398.901C543.622 399.104 543.519 399.29 543.328 399.391L542.27 399.999C542.096 400.101 541.87 400.101 541.68 399.999L540.622 399.408C540.448 399.306 540.327 399.121 540.327 398.918V398.141L539.408 398.665V399.442C539.408 399.644 539.511 399.831 539.702 399.932L541.697 401.047C541.871 401.148 542.096 401.148 542.287 401.047L544.282 399.932C544.455 399.831 544.577 399.645 544.577 399.442V397.195C544.578 397.094 544.551 396.995 544.499 396.908C544.447 396.822 544.372 396.751 544.282 396.705L542.27 395.573H542.269Z" fill="#6F41D8"/>
<rect x="437.161" y="391.486" width="41.6031" height="8.46164" rx="2.11541" fill="#EBF9F5"/>
<rect x="437.161" y="377.384" width="47.9493" height="8.46164" rx="2.11541" fill="#E6EDFF"/>
<rect x="437.161" y="402.769" width="56.4109" height="8.46164" rx="2.11541" fill="#EBF9F5"/>
<rect x="522.482" y="433.089" width="43.0134" height="8.46164" rx="2.11541" fill="#EBF9F5"/>
<rect x="522.482" y="377.384" width="43.0134" height="8.46164" rx="2.11541" fill="#EBF9F5"/>
<rect x="551.393" y="392.897" width="14.1027" height="8.46164" rx="2.11541" fill="#EBF9F5"/>
<g filter="url(#filter2_d_1682_53139)">
<g clip-path="url(#clip8_1682_53139)">
<path d="M73.6887 80.0072C73.6887 69.3585 82.3212 60.7261 92.9698 60.7261H578.29C588.939 60.7261 597.571 69.3585 597.571 80.0072V99.7474H73.6887V80.0072Z" fill="white"/>
<circle cx="92.9699" cy="80.0075" r="5.78433" fill="#FF4A4A"/>
<circle cx="112.251" cy="80.0075" r="5.78433" fill="#FFB83D"/>
<circle cx="131.532" cy="80.0075" r="5.78433" fill="#00C543"/>
<rect opacity="0.3" x="73.6887" y="98.7622" width="524" height="0.964055" fill="url(#paint4_linear_1682_53139)"/>
</g>
</g>
</g>
</g>
</g>
</g>
<g filter="url(#filter3_b_1682_53139)">
<path d="M440.967 35.329C440.967 29.6245 445.591 25 451.296 25H565.137C570.841 25 575.466 29.6245 575.466 35.329V60.7004H440.967V35.329Z" fill="#9ECCEA" fill-opacity="0.7"/>
<path d="M440.967 35.329C440.967 29.6245 445.591 25 451.296 25H565.137C570.841 25 575.466 29.6245 575.466 35.329V60.7004H440.967V35.329Z" fill="url(#paint5_linear_1682_53139)" fill-opacity="0.4"/>
<path d="M470.263 36.4889L479.415 36.4889L479.415 39.0401L473.591 39.0401L473.591 42.0351L478.86 42.0351L478.86 44.4385L473.591 44.4385L473.591 49.4302L470.263 49.4302L470.263 36.4889ZM480.519 39.6317L483.144 39.6317L483.144 40.9629C483.218 40.8026 483.329 40.6301 483.477 40.4452C483.637 40.2603 483.822 40.0878 484.032 39.9275C484.241 39.7673 484.475 39.6379 484.734 39.5393C485.005 39.4407 485.295 39.3914 485.603 39.3914C485.813 39.3914 485.979 39.4037 486.102 39.4284C486.225 39.453 486.336 39.4777 486.435 39.5023L486.435 41.9612C486.373 41.9242 486.232 41.8811 486.01 41.8318C485.788 41.7825 485.529 41.7578 485.233 41.7578C484.58 41.7578 484.106 41.9489 483.81 42.3309C483.514 42.713 483.366 43.1752 483.366 43.7175L483.366 49.4302L480.519 49.4302L480.519 39.6317ZM491.704 49.6705C491.014 49.6705 490.367 49.5719 489.763 49.3747C489.159 49.1652 488.629 48.8509 488.173 48.4318C487.717 48.0128 487.359 47.489 487.101 46.8604C486.842 46.2195 486.712 45.4738 486.712 44.6234L486.712 44.2536C486.712 43.4525 486.842 42.75 487.101 42.1461C487.359 41.5421 487.717 41.0368 488.173 40.6301C488.629 40.2233 489.159 39.9152 489.763 39.7057C490.367 39.4962 491.014 39.3914 491.704 39.3914C492.394 39.3914 493.041 39.4962 493.645 39.7057C494.249 39.9152 494.779 40.2233 495.235 40.6301C495.691 41.0368 496.049 41.5421 496.307 42.1461C496.566 42.75 496.696 43.4525 496.696 44.2536L496.696 44.6234C496.696 45.4615 496.566 46.201 496.307 46.8419C496.049 47.4705 495.691 47.9943 495.235 48.4134C494.779 48.8324 494.249 49.1467 493.645 49.3562C493.041 49.5658 492.394 49.6705 491.704 49.6705ZM491.704 47.3041C492.37 47.3041 492.881 47.0638 493.238 46.5831C493.596 46.1024 493.775 45.4492 493.775 44.6234L493.775 44.2536C493.775 43.5141 493.596 42.9164 493.238 42.4603C492.881 41.992 492.37 41.7578 491.704 41.7578C491.038 41.7578 490.527 41.992 490.169 42.4603C489.812 42.9164 489.633 43.5141 489.633 44.2536L489.633 44.6234C489.633 45.4738 489.812 46.1332 490.169 46.6016C490.527 47.0699 491.038 47.3041 491.704 47.3041ZM497.798 39.6317L500.423 39.6317L500.423 40.9629C500.669 40.5315 501.051 40.1617 501.569 39.8536C502.099 39.5455 502.802 39.3914 503.677 39.3914C504.848 39.3914 505.729 39.7119 506.32 40.3528C506.924 40.9813 507.226 41.8811 507.226 43.052L507.226 49.4302L504.379 49.4302L504.379 43.699C504.379 43.0581 504.238 42.5774 503.954 42.257C503.683 41.9242 503.233 41.7578 502.604 41.7578C502.259 41.7578 501.964 41.8133 501.717 41.9242C501.471 42.0228 501.267 42.1584 501.107 42.3309C500.947 42.5035 500.83 42.713 500.756 42.9595C500.682 43.1937 500.645 43.4402 500.645 43.699L500.645 49.4302L497.798 49.4302L497.798 39.6317ZM512.781 49.5411C512.165 49.5411 511.635 49.4856 511.191 49.3747C510.748 49.2515 510.384 49.0543 510.101 48.7831C509.817 48.512 509.608 48.1607 509.472 47.7293C509.336 47.2856 509.269 46.7433 509.269 46.1024L509.269 41.9612L508.067 41.9612L508.067 39.6317L509.269 39.6317L509.269 37.4132L512.116 37.4132L512.116 39.6317L514.353 39.6317L514.353 41.9612L512.116 41.9612L512.116 45.6402C512.116 46.1948 512.202 46.5892 512.375 46.8234C512.559 47.0576 512.911 47.1747 513.428 47.1747C513.798 47.1747 514.168 47.1562 514.538 47.1192L514.538 49.4487C514.303 49.4733 514.057 49.4918 513.798 49.5041C513.539 49.5288 513.2 49.5411 512.781 49.5411ZM520.368 49.6705C519.654 49.6705 518.982 49.5719 518.353 49.3747C517.737 49.1652 517.201 48.8509 516.745 48.4318C516.289 48.0128 515.931 47.489 515.673 46.8604C515.414 46.2195 515.284 45.4738 515.284 44.6234L515.284 44.2536C515.284 43.4402 515.408 42.7315 515.654 42.1276C515.913 41.5236 516.258 41.0183 516.689 40.6116C517.133 40.2049 517.651 39.9029 518.242 39.7057C518.846 39.4962 519.493 39.3914 520.184 39.3914C521.798 39.3914 523.018 39.8105 523.844 40.6486C524.67 41.4743 525.083 42.676 525.083 44.2536L525.083 45.2705L518.205 45.2705C518.218 45.6525 518.285 45.9792 518.409 46.2503C518.532 46.5091 518.692 46.7248 518.889 46.8974C519.087 47.0699 519.308 47.1993 519.555 47.2856C519.814 47.3596 520.085 47.3965 520.368 47.3965C520.911 47.3965 521.336 47.3164 521.644 47.1562C521.965 46.9836 522.174 46.7556 522.273 46.4722L524.898 46.4722C524.701 47.5444 524.214 48.3456 523.437 48.8755C522.661 49.4055 521.638 49.6705 520.368 49.6705ZM520.276 41.6469C520.017 41.6469 519.764 41.6777 519.518 41.7393C519.284 41.801 519.068 41.9057 518.871 42.0536C518.686 42.1892 518.532 42.3679 518.409 42.5898C518.298 42.8116 518.236 43.0828 518.224 43.4032L522.291 43.4032C522.291 43.0581 522.236 42.7746 522.125 42.5528C522.014 42.3309 521.866 42.1522 521.681 42.0166C521.508 41.8811 521.299 41.7886 521.052 41.7393C520.806 41.6777 520.547 41.6469 520.276 41.6469ZM526.189 39.6317L528.814 39.6317L528.814 40.9629C529.061 40.5315 529.443 40.1617 529.961 39.8536C530.491 39.5455 531.193 39.3914 532.068 39.3914C533.239 39.3914 534.12 39.7119 534.712 40.3528C535.316 40.9813 535.618 41.8811 535.618 43.052L535.618 49.4302L532.771 49.4302L532.771 43.699C532.771 43.0581 532.629 42.5774 532.345 42.257C532.074 41.9242 531.624 41.7578 530.996 41.7578C530.651 41.7578 530.355 41.8133 530.108 41.9242C529.862 42.0228 529.659 42.1584 529.498 42.3309C529.338 42.5035 529.221 42.713 529.147 42.9595C529.073 43.1937 529.036 43.4402 529.036 43.699L529.036 49.4302L526.189 49.4302L526.189 39.6317ZM540.858 49.6705C540.218 49.6705 539.638 49.5658 539.121 49.3562C538.603 49.1344 538.159 48.8139 537.79 48.3949C537.42 47.9758 537.136 47.452 536.939 46.8234C536.742 46.1948 536.643 45.4615 536.643 44.6234L536.643 44.2536C536.643 42.676 537.007 41.4743 537.734 40.6486C538.474 39.8105 539.515 39.3914 540.858 39.3914C541.413 39.3914 541.937 39.5208 542.43 39.7796C542.935 40.0261 543.354 40.3897 543.687 40.8704L543.687 36.4889L546.534 36.4889L546.534 49.4302L543.909 49.4302L543.909 48.0991C543.786 48.2963 543.625 48.4935 543.428 48.6907C543.243 48.8755 543.022 49.0419 542.763 49.1898C542.504 49.3377 542.214 49.4548 541.894 49.5411C541.573 49.6274 541.228 49.6705 540.858 49.6705ZM541.542 47.3226C542.146 47.3226 542.652 47.1131 543.058 46.694C543.478 46.275 543.687 45.6772 543.687 44.9007L543.687 43.9763C543.687 43.2368 543.478 42.6822 543.058 42.3124C542.652 41.9304 542.146 41.7393 541.542 41.7393C540.951 41.7393 540.47 41.9489 540.1 42.3679C539.743 42.7746 539.564 43.4032 539.564 44.2536L539.564 44.6234C539.564 45.5108 539.749 46.1825 540.119 46.6385C540.501 47.0946 540.976 47.3226 541.542 47.3226Z" fill="white"/>
<path d="M575.466 60.7004V61.3897H576.155V60.7004H575.466ZM440.967 60.7004H440.277V61.3897H440.967V60.7004ZM451.296 25.6893H565.137V24.3107H451.296V25.6893ZM574.776 35.329V60.7004H576.155V35.329H574.776ZM575.466 60.0111H440.967V61.3897H575.466V60.0111ZM441.656 60.7004V35.329H440.277V60.7004H441.656ZM565.137 25.6893C570.461 25.6893 574.776 30.0052 574.776 35.329H576.155C576.155 29.2438 571.222 24.3107 565.137 24.3107V25.6893ZM451.296 24.3107C445.21 24.3107 440.277 29.2438 440.277 35.329H441.656C441.656 30.0052 445.972 25.6893 451.296 25.6893V24.3107Z" fill="white" fill-opacity="0.4"/>
</g>
<defs>
<filter id="filter0_d_1682_53139" x="0.797142" y="0.308527" width="669.458" height="552.394" filterUnits="userSpaceOnUse" color-interpolation-filters="sRGB">
<feFlood flood-opacity="0" result="BackgroundImageFix"/>
<feColorMatrix in="SourceAlpha" type="matrix" values="0 0 0 0 0 0 0 0 0 0 0 0 0 0 0 0 0 0 127 0" result="hardAlpha"/>
<feOffset dy="12.8105"/>
<feGaussianBlur stdDeviation="36.6013"/>
<feColorMatrix type="matrix" values="0 0 0 0 0.394531 0 0 0 0 0.164062 0 0 0 0 0.625 0 0 0 0.2 0"/>
<feBlend mode="normal" in2="BackgroundImageFix" result="effect1_dropShadow_1682_53139"/>
<feBlend mode="normal" in="SourceGraphic" in2="effect1_dropShadow_1682_53139" result="shape"/>
</filter>
<filter id="filter1_d_1682_53139" x="70.3396" y="60.7007" width="530.65" height="422.268" filterUnits="userSpaceOnUse" color-interpolation-filters="sRGB">
<feFlood flood-opacity="0" result="BackgroundImageFix"/>
<feColorMatrix in="SourceAlpha" type="matrix" values="0 0 0 0 0 0 0 0 0 0 0 0 0 0 0 0 0 0 127 0" result="hardAlpha"/>
<feOffset dy="3.66013"/>
<feGaussianBlur stdDeviation="1.83007"/>
<feComposite in2="hardAlpha" operator="out"/>
<feColorMatrix type="matrix" values="0 0 0 0 0 0 0 0 0 0 0 0 0 0 0 0 0 0 0.25 0"/>
<feBlend mode="normal" in2="BackgroundImageFix" result="effect1_dropShadow_1682_53139"/>
<feBlend mode="normal" in="SourceGraphic" in2="effect1_dropShadow_1682_53139" result="shape"/>
</filter>
<filter id="filter2_d_1682_53139" x="46.8013" y="-16.6744" width="604.554" height="119.693" filterUnits="userSpaceOnUse" color-interpolation-filters="sRGB">
<feFlood flood-opacity="0" result="BackgroundImageFix"/>
<feColorMatrix in="SourceAlpha" type="matrix" values="0 0 0 0 0 0 0 0 0 0 0 0 0 0 0 0 0 0 127 0" result="hardAlpha"/>
<feOffset dx="13.4482" dy="-37.0648"/>
<feGaussianBlur stdDeviation="20.1678"/>
<feComposite in2="hardAlpha" operator="out"/>
<feColorMatrix type="matrix" values="0 0 0 0 0.0159375 0 0 0 0 0.0945625 0 0 0 0 0.2125 0 0 0 0.2 0"/>
<feBlend mode="normal" in2="BackgroundImageFix" result="effect1_dropShadow_1682_53139"/>
<feBlend mode="normal" in="SourceGraphic" in2="effect1_dropShadow_1682_53139" result="shape"/>
</filter>
<filter id="filter3_b_1682_53139" x="424.362" y="8.39516" width="167.709" height="68.9099" filterUnits="userSpaceOnUse" color-interpolation-filters="sRGB">
<feComposite in2="SourceAlpha" operator="in" result="effect1_backgroundBlur_1682_53139"/>
<feBlend mode="normal" in="SourceGraphic" in2="effect1_backgroundBlur_1682_53139" result="shape"/>
</filter>
<radialGradient id="paint0_radial_1682_53139" cx="0" cy="0" r="1" gradientUnits="userSpaceOnUse" gradientTransform="translate(118.937 451.77) rotate(-39.5269) scale(535.501 719.525)">
<stop stop-color="#E7F2F9"/>
<stop offset="1" stop-color="white"/>
</radialGradient>
<radialGradient id="paint1_radial_1682_53139" cx="0" cy="0" r="1" gradientUnits="userSpaceOnUse" gradientTransform="translate(150.797 423.874) rotate(5.2937) scale(11.5381 15.6251)">
<stop offset="0.00520833" stop-color="#ECF5FC"/>
<stop offset="1" stop-color="#CEE4F3"/>
</radialGradient>
<radialGradient id="paint2_radial_1682_53139" cx="0" cy="0" r="1" gradientUnits="userSpaceOnUse" gradientTransform="translate(312.978 423.874) rotate(5.2937) scale(11.5381 15.6251)">
<stop offset="0.00520833" stop-color="#ECF5FC"/>
<stop offset="1" stop-color="#CEE4F3"/>
</radialGradient>
<radialGradient id="paint3_radial_1682_53139" cx="0" cy="0" r="1" gradientUnits="userSpaceOnUse" gradientTransform="translate(475.159 423.874) rotate(5.2937) scale(11.5381 15.6251)">
<stop offset="0.00520833" stop-color="#ECF5FC"/>
<stop offset="1" stop-color="#CEE4F3"/>
</radialGradient>
<linearGradient id="paint4_linear_1682_53139" x1="597.229" y1="104.55" x2="73.229" y2="104.55" gradientUnits="userSpaceOnUse">
<stop stop-color="#F2F6FF"/>
<stop offset="1" stop-color="#F2F6FF" stop-opacity="0"/>
</linearGradient>
<linearGradient id="paint5_linear_1682_53139" x1="444.738" y1="25.1611" x2="561.552" y2="40.0591" gradientUnits="userSpaceOnUse">
<stop stop-color="white"/>
<stop offset="1" stop-color="white" stop-opacity="0"/>
</linearGradient>
<clipPath id="clip0_1682_53139">
<path d="M73.9998 77.3055C73.9998 68.1349 81.434 60.7007 90.6046 60.7007H580.447C589.618 60.7007 597.052 68.1349 597.052 77.3055V450.084C597.052 459.255 589.618 466.689 580.447 466.689H90.6046C81.434 466.689 73.9998 459.255 73.9998 450.084V77.3055Z" fill="white"/>
</clipPath>
<clipPath id="clip1_1682_53139">
<rect x="73.9998" y="60.7007" width="523.33" height="414.948" rx="14.1027" fill="white"/>
</clipPath>
<clipPath id="clip2_1682_53139">
<rect x="102.927" y="225.779" width="148.079" height="226.349" rx="11.2822" fill="white"/>
</clipPath>
<clipPath id="clip3_1682_53139">
<rect width="110.932" height="125.246" fill="white" transform="translate(121.74 235.306)"/>
</clipPath>
<clipPath id="clip4_1682_53139">
<rect x="265.108" y="225.779" width="148.079" height="226.349" rx="11.2822" fill="white"/>
</clipPath>
<clipPath id="clip5_1682_53139">
<rect width="110.933" height="125.247" fill="white" transform="translate(283.921 235.306)"/>
</clipPath>
<clipPath id="clip6_1682_53139">
<rect x="427.289" y="225.779" width="148.079" height="226.349" rx="11.2822" fill="white"/>
</clipPath>
<clipPath id="clip7_1682_53139">
<rect width="110.932" height="125.246" fill="white" transform="translate(445.622 235.651)"/>
</clipPath>
<clipPath id="clip8_1682_53139">
<path d="M73.6887 80.0072C73.6887 69.3585 82.3212 60.7261 92.9698 60.7261H578.29C588.939 60.7261 597.571 69.3585 597.571 80.0072V99.7474H73.6887V80.0072Z" fill="white"/>
</clipPath>
</defs>
</svg>
